<?xml version="1.0" encoding="UTF-8" standalone="no"?>
<!-- Created with Inkscape (http://www.inkscape.org/) -->

<svg
   width="220.1335mm"
   height="229.24442mm"
   viewBox="0 0 220.1335 229.24442"
   version="1.1"
   id="svg1"
   xml:space="preserve"
   inkscape:version="1.3 (0e150ed6c4, 2023-07-21)"
   sodipodi:docname="heroImage.svg"
   xmlns:inkscape="http://www.inkscape.org/namespaces/inkscape"
   xmlns:sodipodi="http://sodipodi.sourceforge.net/DTD/sodipodi-0.dtd"
   xmlns="http://www.w3.org/2000/svg"
   xmlns:svg="http://www.w3.org/2000/svg"><sodipodi:namedview
     id="namedview1"
     pagecolor="#ffffff"
     bordercolor="#000000"
     borderopacity="0.25"
     inkscape:showpageshadow="2"
     inkscape:pageopacity="0.0"
     inkscape:pagecheckerboard="false"
     inkscape:deskcolor="#d1d1d1"
     inkscape:document-units="mm"
     showgrid="false"
     inkscape:zoom="0.73139029"
     inkscape:cx="393.77061"
     inkscape:cy="559.89258"
     inkscape:window-width="1920"
     inkscape:window-height="1017"
     inkscape:window-x="-8"
     inkscape:window-y="-8"
     inkscape:window-maximized="1"
     inkscape:current-layer="layer1" /><defs
     id="defs1" /><g
     inkscape:label="Layer 1"
     inkscape:groupmode="layer"
     id="layer1"
     transform="translate(-0.65413469,-0.23467523)"><path
       d="m 220.78746,110.25912 a 109.68275,109.68275 0 0 1 -30.23396,75.81473 c -0.13224,0.14027 -0.26713,0.28056 -0.40201,0.42083 a 110.06649,110.06649 0 0 1 -158.802898,0.0609 c -0.134993,-0.14017 -0.269989,-0.28036 -0.402334,-0.42053 A 110.06561,110.06561 0 0 1 30.591894,34.843805 c 0.129588,-0.142936 0.264475,-0.283207 0.399362,-0.423497 a 110.06755,110.06755 0 0 1 159.400854,-0.06114 c 0.135,0.140187 0.26999,0.280355 0.39969,0.423191 a 109.67236,109.67236 0 0 1 29.99566,75.476761 z"
       fill="#222222"
       id="path4"
       style="stroke-width:0.264583" /><rect
       x="0.65413469"
       y="110.03675"
       width="220.13333"
       height="0.52916664"
       fill="#e89005"
       id="rect4"
       style="stroke-width:0.264583" /><rect
       x="110.45622"
       y="0.2346772"
       width="0.52916664"
       height="220.13333"
       fill="#e89005"
       id="rect5"
       style="stroke-width:0.264583" /><path
       d="M 62.579167,74.024271 A 93.596811,93.596811 0 0 0 42.438226,44.176403 94.273731,94.273731 0 0 0 30.991256,34.420308 c -0.134887,0.14029 -0.269774,0.280561 -0.399362,0.423497 23.509451,16.966644 38.842063,44.593847 38.854009,75.737955 0.01191,31.01181 -15.169912,58.55017 -38.499645,75.55331 0.132345,0.14017 0.267341,0.28036 0.402334,0.42053 a 94.386624,94.386624 0 0 0 11.140585,-9.5478 94.022644,94.022644 0 0 0 20.08999,-102.983529 z"
       fill="#e89005"
       id="path5"
       style="stroke-width:0.264583" /><path
       d="m 151.9959,110.55009 c -0.012,-31.144098 15.29947,-58.783062 38.7959,-75.767734 -0.1297,-0.142836 -0.26469,-0.283004 -0.39969,-0.423191 a 94.009884,94.009884 0 0 0 -0.24062,152.135515 c 0.13488,-0.14027 0.26977,-0.28056 0.40201,-0.42083 -23.34013,-16.98525 -38.5457,-44.51196 -38.5576,-75.52376 z"
       fill="#e89005"
       id="path6"
       style="stroke-width:0.264583" /><polygon
       points="390.955,704.422 388.184,759.842 417.279,765.384 425.592,712.735 "
       fill="#9d616a"
       id="polygon6"
       transform="matrix(0.26458333,0,0,0.26458333,-19.517421,0.23458648)" /><polygon
       points="535.046,722.434 541.974,768.155 568.298,768.155 562.756,719.663 "
       fill="#9d616a"
       id="polygon7"
       transform="matrix(0.26458333,0,0,0.26458333,-19.517421,0.23458648)" /><path
       d="m 131.9446,211.17375 c 0,0 -7.69816,0.36658 -7.69816,1.09973 v 12.09712 c 0,1.09974 1.46632,2.56605 1.09974,3.29921 -0.36658,0.73316 2.19948,2.56606 8.06474,1.46632 5.86527,-1.09973 3.66581,-4.76553 3.66581,-4.76553 0,0 -5.86528,-10.26422 -5.13213,-13.19685 z"
       fill="#2f2e41"
       id="path12"
       style="stroke-width:0.264583" /><path
       d="m 82.273117,211.35704 c 0,0 8.7979,0.18329 8.7979,0.91644 v 12.09712 c 0,1.09974 -1.46632,2.56605 -1.09974,3.29921 0.36659,0.73316 -2.199478,2.56606 -8.06474,1.46632 -5.865262,-1.09973 -3.665802,-4.76553 -3.665802,-4.76553 0,0 4.76554,-10.08093 4.032382,-13.01356 z"
       fill="#2f2e41"
       id="path13"
       style="stroke-width:0.264583" /><path
       d="m 90.154567,71.507071 c 0,0 -6.598422,-2.19949 -12.463689,4.39896 l -1.099738,2.19948 c 0,0 -8.431324,2.566061 -10.997377,4.398961 0,0 -7.698163,-1.83289 -17.229222,0 l -9.531062,-2.19948 c 0,0 -18.328967,-12.830301 -20.161855,-4.765551 -1.832888,8.064741 17.229222,10.997371 17.229222,10.997371 l 15.762906,4.39895 c 0,0 12.097115,2.93265 16.862645,0.73316 0,0 13.56343,-0.73316 16.129486,-5.86526 l 5.498684,2.56605 z"
       fill="#9d616a"
       id="path16"
       style="stroke-width:0.264583" /><path
       d="m 112.88249,69.674171 c 0,0 13.56343,-1.46632 18.69554,5.49869 l 10.63079,2.93264 c 0,0 11.73054,-2.19948 16.12949,-1.09974 l 9.53106,-2.56605 c 0,0 9.16448,-14.663171 14.29659,-10.630799 5.13211,4.032369 -12.09712,16.86265 -12.09712,16.86265 l -23.09449,7.69816 c 0,0 -17.96238,1.46632 -21.62817,-5.13212 l -4.03237,9.16448 -15.39633,-3.6658 z"
       fill="#9d616a"
       id="path17"
       style="stroke-width:0.264583" /><circle
       cx="100.05222"
       cy="57.943634"
       r="9.8976393"
       fill="#9d616a"
       id="circle17"
       style="stroke-width:0.264583" /><path
       d="m 94.920097,63.808904 v 8.064747 l 3.6658,12.830271 10.997383,-12.830271 c 0,0 -2.93264,-8.797905 -2.93264,-10.264223 0,-1.466318 -11.730543,2.199476 -11.730543,2.199476 z"
       fill="#9d616a"
       id="path18"
       style="stroke-width:0.264583" /><g
       id="g1"
       style="fill:#cc2936;fill-opacity:1"
       transform="translate(6.8733253,-33.643119)"><path
         d="m 78.515716,192.02947 -1.466321,16.86264 -1.466321,14.29659 c 0,0 5.498688,-2.19948 10.630797,1.09974 0,0 3.299214,-0.73316 2.566054,-15.02975 l 3.299221,-15.02974 z"
         fill="#e89005"
         id="path7"
         style="fill:#cc2936;fill-opacity:1;stroke-width:0.264583" /><path
         d="m 108.20863,197.52815 c 0,0 2.19948,13.19685 3.29921,14.29659 0,0 1.81559,11.80131 2.69751,14.78454 a 2.6604304,2.6604304 0 0 0 0.23513,0.61178 c 0.73316,1.09974 8.7979,3.6658 9.16448,-0.73316 0.36658,-4.39896 1.46632,-11.73053 -2.19948,-17.22922 L 119.206,195.32867 Z"
         fill="#e89005"
         id="path8"
         style="fill:#cc2936;fill-opacity:1;stroke-width:0.264583" /><path
         d="m 130.38667,195.87854 c -0.36658,4.03237 -20.52843,3.29921 -24.19422,3.29921 -1.15845,0 -2.64661,-0.17962 -3.38728,-2.18112 -1.26835,-3.42022 -1.96482,-8.41669 -2.19948,-10.37055 -0.0952,1.81088 -0.931129,6.19516 -3.020522,9.00321 -1.272117,1.71556 -3.376181,1.37467 -5.689317,0.9824 -3.84175,-0.65252 -11.477625,-3.02795 -13.56343,-2.56606 -3.299214,0.73316 -7.269295,0.80645 -7.331586,0 a 9.4414445,9.4414445 0 0 1 0.0073,-1.32334 c 0.48382,-7.58088 7.507536,-28.13133 7.507536,-29.6526 0,-1.83289 3.299211,-9.53106 3.299211,-9.53106 l 33.725308,-4.03236 c 0,0 13.35812,36.03476 15.19478,44.90595 0.15751,0.76614 -0.31897,1.1474 -0.34833,1.46632 z"
         fill="#e89005"
         id="path9"
         style="fill:#cc2936;fill-opacity:1;stroke-width:0.264583" /><path
         d="m 85.114141,234.55265 -9.531059,-1.8329 0.916448,15.21304 7.514873,5.3154 c 0,0 -0.733158,-14.66317 1.099738,-18.69554 z"
         fill="#e89005"
         id="path10"
         style="fill:#cc2936;fill-opacity:1;stroke-width:0.264583" /><path
         d="m 123.97154,233.45291 c 0,0 -4.76553,2.93264 -8.7979,0 l 3.29922,13.56343 5.49869,-0.73316 c 0,0 2.56604,-8.06474 -10e-6,-12.83027 z"
         fill="#e89005"
         id="path11"
         style="fill:#cc2936;fill-opacity:1;stroke-width:0.264583" /><path
         d="m 117.18982,150.42272 c 0,0 -0.17971,1.32334 -1.84758,1.4443 -3.33949,0.24562 -8.96294,0.81379 -12.63231,2.0382 -5.498687,1.8329 -21.994751,1.8329 -21.994751,1.8329 l -1.070372,-33.20478 0.520515,-2.5367 c -0.366581,-2.93264 2.566053,-14.66316 2.566053,-14.66316 l 2.140768,-1.57996 2.005277,-0.43256 0.619498,0.5462 c 0,4.88284 4.765529,9.53106 4.765529,9.53106 6.965006,-3.29921 9.897643,-10.6308 9.897643,-10.6308 l 2.06379,-0.30427 2.1592,0.24193 1.9539,0.21997 -0.67821,0.57553 -0.36658,0.73316 c -0.022,0.044 0.0183,-0.044 0,0 -5.33741,11.32364 1.10708,16.44478 5.13211,18.69554 1.66805,0.93846 1.8329,1.83289 1.8329,1.83289 0,0 1.50659,-0.45088 1.46632,1.09974 -0.121,5.01849 -1.03369,16.34943 0.36658,19.4287 1.83288,4.03237 1.09972,5.13211 1.09972,5.13211 z"
         fill="#e89005"
         id="path19"
         style="fill:#cc2936;fill-opacity:1;stroke-width:0.264583" /></g><path
       d="m 89.604697,51.252401 a 24.679343,24.679343 0 0 1 0.83581,-2.398596 c 0.41789,-0.959438 0,-3.83775 0.41789,-3.83775 h 1.67161 l 2.0895,-1.918877 1.2537,0.959437 1.6716,-0.959437 2.0895,0.959437 2.089503,-0.959437 3.34321,2.398596 0.8358,-0.479719 0.8358,1.439156 h 0.4179 l 1.6716,2.398594 h 0.8358 v 2.398596 h 0.8358 v 6.236345 l -1.09974,4.303977 -0.36657,-2.111846 a 0.13335,0.13335 0 0 0 -0.24555,-0.07209 l -0.79554,1.237998 -0.51041,-1.953048 a 13.054748,13.054748 0 0 0 -4.88145,-7.303011 c -3.092563,-2.244005 -7.563053,-3.312583 -12.159953,3.019711 z"
       fill="#2f2e41"
       id="path20"
       style="stroke-width:0.264583" /><path
       d="m 124.9796,118.06263 c 0,0 -1.09617,0.0403 -2.76402,0.16127 a 87.298706,87.298706 0 0 1 -2.00151,-9.32575 c -0.48382,-3.38719 -0.32989,-11.719518 -0.16861,-16.998268 0.044,-1.38202 0.0843,-2.55877 0.11724,-3.37623 a 15.314461,15.314461 0 0 0 2.984,1.31238 c 0,0 -0.0403,0.9824 -0.0806,2.53303 -0.121,5.01849 -0.21998,16.015868 1.18029,19.095138 1.83291,4.03237 0.73316,6.59843 0.73316,6.59843 z"
       fill="#cc2936"
       id="path24"
       style="stroke-width:0.264583" /><g
       id="g2"><path
         d="m 123.14671,89.836031 c 0,0 -0.0403,0.98239 -0.0806,2.53303 a 15.257407,15.257407 0 0 1 -3.0207,-0.46919 c -11.32368,-2.98763 -8.01337,-18.36563 -6.78906,-22.83791 l 1.9539,0.21996 h 0.004 c 0.0549,0.0513 0.11366,0.1063 0.17237,0.16129 -5.33741,11.32364 0.75142,16.82967 4.77645,19.08043 a 15.314461,15.314461 0 0 0 2.98401,1.31239 z"
         fill="#cc2936"
         id="path23"
         style="fill:#e89005;fill-opacity:1;stroke-width:0.264583" /><path
         d="m 137.80987,162.41871 c -0.36658,4.03237 -21.62817,4.39896 -25.29396,4.39896 -1.15845,0 -2.09674,-1.46265 -2.83741,-3.46415 3.93356,-0.78086 20.85116,-3.96642 27.92983,-2.5844 a 6.7298543,6.7298543 0 0 1 0.20154,1.64959 z"
         fill="#cc2936"
         id="path14"
         style="fill:#e89005;fill-opacity:1;stroke-width:0.264583" /><path
         d="m 104.4585,161.98617 c -1.27212,1.71556 -3.0096,2.84099 -5.322738,2.44872 -3.84175,-0.65252 -11.844198,-2.29479 -13.930011,-1.83289 -3.299214,0.73316 -7.269295,-1.39302 -7.331586,-2.19949 a 9.4414445,9.4414445 0 0 1 0.0073,-1.32334 c 7.716422,-0.20892 21.382585,-0.11728 26.576995,2.907 z"
         fill="#cc2936"
         id="path15"
         style="fill:#e89005;fill-opacity:1;stroke-width:0.264583" /><path
         d="m 91.745468,70.110401 c -0.696466,4.23399 -2.800538,15.9425 -5.227336,18.77982 l -0.02935,-0.88709 c -0.36658,-2.93264 2.199481,-17.22922 2.199481,-17.22922 z"
         fill="#cc2936"
         id="path21"
         style="fill:#e89005;fill-opacity:1;stroke-width:0.264583" /><path
         d="m 111.0972,68.820031 c -1.84023,3.47517 -7.1116,12.44537 -12.144729,11.85152 -4.857175,-0.57187 -5.260445,-7.82281 -5.201737,-10.9937 l 1.169366,-0.25295 c 0,4.88284 4.398962,9.04717 4.398962,9.04717 6.965008,-3.29922 9.182738,-9.94163 9.182738,-9.94163 z"
         fill="#cc2936"
         id="path22"
         style="fill:#e89005;fill-opacity:1;stroke-width:0.264583" /></g><path
       d="m 90.704438,92.923491 c 0,0 11.730532,-5.61237 23.094502,0"
       fill="#cc2936"
       id="path25"
       style="fill:#000000;fill-opacity:0.23195876;stroke-width:0.264583" /><path
       d="m 88.231229,122.20759 c 0,0 3.439588,-0.26458 11.906251,0.52917 8.46667,0.79375 22.48959,-4.49792 22.48959,-4.49792"
       fill="#b57002"
       id="path26"
       style="fill:#000000;fill-opacity:0.134021;stroke-width:0.264583" /><path
       d="m 41.934703,63.07523 v 0.251354 c 0,0.06615 0,0.134938 -0.0053,0.201083 a 15.52816,15.52816 0 0 1 -3.405187,9.419164 c -0.108479,0.14023 -0.22225,0.27517 -0.338643,0.41011 -0.174667,0.20637 -0.354565,0.40481 -0.53975,0.6006 -0.0159,0.0159 -0.03178,0.0344 -0.05029,0.0503 l -0.0079,0.008 c -0.02119,0.0212 -0.04237,0.045 -0.0635,0.0662 q -0.488196,0.50401 -1.023969,0.96572 c -0.07144,0.0609 -0.145521,0.12436 -0.22225,0.18521 a 15.555478,15.555478 0 0 1 -9.823982,3.587751 c -0.02646,0.003 -0.05556,0.003 -0.08204,0.003 h -0.09256 c -0.02649,0 -0.05294,0 -0.07938,-0.003 -0.09263,0 -0.182578,-0.003 -0.275166,-0.005 a 15.538532,15.538532 0 0 1 -9.765747,-3.754441 c -0.07408,-0.0609 -0.148183,-0.12435 -0.219626,-0.1905 -0.283122,-0.2487 -0.555651,-0.51064 -0.817586,-0.78052 -0.02111,-0.0212 -0.04231,-0.045 -0.0635,-0.0661 l -0.0079,-0.008 c -0.01849,-0.0159 -0.0344,-0.0344 -0.05029,-0.0503 -0.22225,-0.23283 -0.436536,-0.47361 -0.642919,-0.71967 q -0.170677,-0.2024 -0.333375,-0.41275 a 15.508443,15.508443 0 0 1 -3.315258,-9.305774 c -0.0053,-0.0635 -0.0053,-0.129645 -0.0053,-0.195791 v -0.246063 c 0,-0.0291 0,-0.05821 0.0027,-0.08731 a 15.52916,15.52916 0 0 1 3.257021,-9.345083 q 0.162682,-0.210344 0.333375,-0.41275 c 0.209021,-0.254 0.428591,-0.500063 0.653521,-0.740834 0.0159,-0.01852 0.03175,-0.0344 0.05025,-0.05292 0,-0.0026 0.0026,-0.0053 0.0053,-0.0079 0.02119,-0.02117 0.04233,-0.04498 0.06615,-0.06615 q 0.440576,-0.456406 0.918104,-0.878416 c 0.07144,-0.06615 0.145521,-0.129646 0.219625,-0.1905 a 15.551541,15.551541 0 0 1 9.974792,-3.712104 c 0.02648,-0.0026 0.05556,-0.0026 0.08204,-0.0026 h 0.171953 a 15.557947,15.557947 0 0 1 9.789583,3.545416 c 0.07408,0.0635 0.148183,0.124354 0.222274,0.187854 0.386292,0.328084 0.756708,0.677334 1.108588,1.042459 0.02119,0.02117 0.04233,0.04498 0.0635,0.06615 l 0.0053,0.0053 c 0.01855,0.01587 0.03704,0.03704 0.05292,0.05292 0.195791,0.206375 0.383664,0.420687 0.566245,0.637646 0.116401,0.134937 0.227505,0.269875 0.338643,0.410104 a 15.528533,15.528533 0 0 1 3.346963,9.4615 0.74268541,0.74268541 0 0 1 0.0026,0.07673 z"
       fill="#cc2936"
       id="path27"
       style="stroke-width:0.264583" /><rect
       x="25.924765"
       y="47.652672"
       width="0.52916664"
       height="31.220833"
       fill="#e89005"
       id="rect27"
       style="stroke-width:0.264583" /><rect
       x="10.578934"
       y="62.998505"
       width="31.355774"
       height="0.52916664"
       fill="#e89005"
       id="rect28"
       style="stroke-width:0.264583" /><path
       d="m 19.569474,62.998501 a 12.152064,12.152064 0 0 0 -5.273127,-9.757833 q -0.170675,0.202406 -0.333375,0.41275 a 11.631274,11.631274 0 0 1 5.079981,9.345083 c 0.0026,0.08731 0.0026,0.174625 0.0026,0.264583 0,0.08996 0,0.177271 -0.0026,0.264583 a 11.642725,11.642725 0 0 1 -5.019146,9.305394 q 0.162685,0.21035 0.333375,0.41275 a 12.160094,12.160094 0 0 0 5.212292,-9.718144 c 0.0053,-0.08731 0.0053,-0.17727 0.0053,-0.264583 0,-0.08731 0,-0.177271 -0.0053,-0.264583 z"
       fill="#e89005"
       id="path28"
       style="stroke-width:0.264583" /><path
       d="m 33.335745,63.527667 c -0.0026,-0.08731 -0.0026,-0.174625 -0.0026,-0.264583 0,-0.08996 0,-0.177271 0.0026,-0.264583 a 11.641008,11.641008 0 0 1 5.249333,-9.4615 c -0.111138,-0.140229 -0.22225,-0.275167 -0.338643,-0.410104 a 12.161451,12.161451 0 0 0 -5.437211,9.871604 c -0.0053,0.08731 -0.0053,0.177271 -0.0053,0.264583 0,0.08731 0,0.177271 0.0053,0.264583 a 12.157646,12.157646 0 0 0 5.376352,9.829274 c 0.116401,-0.13494 0.230153,-0.26988 0.338643,-0.41011 a 11.636639,11.636639 0 0 1 -5.188474,-9.419164 z"
       fill="#e89005"
       id="path29"
       style="stroke-width:0.264583" /></g></svg>
